<svg id="Layer_1" data-name="Layer 1" xmlns="http://www.w3.org/2000/svg" xmlns:xlink="http://www.w3.org/1999/xlink" viewBox="0 0 1919 1079"><defs><style>.cls-1,.cls-21,.cls-4{fill:#0a1c39;}.cls-12,.cls-2,.cls-22,.cls-30{fill:#fff;}.cls-20,.cls-3{fill:none;stroke-miterlimit:10;}.cls-3{stroke:#0a1c39;}.cls-4{font-size:44.6px;}.cls-4,.cls-6{font-family:Satoshi-Bold, Satoshi;font-weight:700;}.cls-5{letter-spacing:-0.02em;}.cls-6{font-size:35.32px;fill:#2563eb;}.cls-7{letter-spacing:-0.01em;}.cls-8{letter-spacing:-0.04em;}.cls-10,.cls-11,.cls-9{fill:#ef4444;}.cls-9{letter-spacing:-0.07em;}.cls-11{letter-spacing:0em;}.cls-12{font-size:14px;}.cls-12,.cls-21,.cls-22{font-family:Satoshi-Medium, Satoshi;font-weight:500;}.cls-13{letter-spacing:-0.01em;}.cls-14{letter-spacing:-0.01em;}.cls-15{letter-spacing:0.01em;}.cls-16{letter-spacing:-0.01em;}.cls-17{letter-spacing:0em;}.cls-18{letter-spacing:-0.02em;}.cls-19{letter-spacing:0em;}.cls-20{stroke:#fff;}.cls-21,.cls-22{font-size:23.3px;}.cls-23{letter-spacing:0em;}.cls-24{letter-spacing:0.01em;}.cls-25{letter-spacing:-0.01em;}.cls-26{letter-spacing:-0.01em;}.cls-27{letter-spacing:-0.02em;}.cls-28{letter-spacing:-0.02em;}.cls-29{letter-spacing:-0.02em;}.cls-30{font-size:16.31px;font-family:Satoshi-Regular, Satoshi;}.cls-31{letter-spacing:0em;}.cls-32{letter-spacing:0em;}.cls-33{letter-spacing:-0.01em;}.cls-34{letter-spacing:0em;}</style></defs><rect class="cls-1" width="1919" height="1079"/><rect class="cls-2" x="383.8" y="20" width="1515.2" height="1039" rx="10.71"/><line class="cls-3" x1="380.48" y1="105.86" x2="1895.68" y2="105.86"/><text class="cls-4" transform="translate(408.26 79.48)">Dashboa<tspan class="cls-5" x="183.01" y="0">r</tspan><tspan x="199.78" y="0">d</tspan></text><text class="cls-6" transform="translate(113.64 72.48)">Ge<tspan class="cls-7" x="47.29" y="0">n</tspan><tspan x="67.88" y="0">sa</tspan><tspan class="cls-8" x="103.58" y="0">n</tspan><tspan class="cls-9" x="122.83" y="0">W</tspan><tspan class="cls-10" x="156.88" y="0">or</tspan><tspan class="cls-11" x="191.8" y="0">k</tspan><tspan class="cls-10" x="210.77" y="0">s</tspan></text><text class="cls-12" transform="translate(113.64 92.51)">Official Job Assis<tspan class="cls-13" x="107.38" y="0">t</tspan><tspan x="111.75" y="0">ance Pl</tspan><tspan class="cls-14" x="158.18" y="0">a</tspan><tspan class="cls-15" x="165.55" y="0">t</tspan><tspan class="cls-16" x="170.13" y="0">f</tspan><tspan x="174.35" y="0">orm </tspan><tspan class="cls-17" x="203.53" y="0">o</tspan><tspan x="211.62" y="0">f</tspan><tspan x="0" y="16.8">PESO - Gene</tspan><tspan class="cls-18" x="83.48" y="16.8">r</tspan><tspan x="88.35" y="16.8">al San</tspan><tspan class="cls-19" x="126.53" y="16.8">t</tspan><tspan x="130.91" y="16.8">os City</tspan></text><image width="617" height="616" transform="translate(41.27 43.21) scale(0.11)" xlink:href="../GensanWorks/client/public/peso-gsc-logo.png"/><line class="cls-20" y1="147.48" x2="383.8" y2="147.48"/><line class="cls-20" y1="931.52" x2="383.8" y2="931.52"/><rect class="cls-2" x="41.35" y="193.44" width="301.19" height="55.15" rx="6.7"/><text class="cls-21" transform="translate(102.96 227.75)">Home</text><rect class="cls-1" x="54.74" y="204.56" width="31.73" height="31.73"/><text class="cls-22" transform="translate(102.96 577)">Help</text><rect class="cls-2" x="54.74" y="553.82" width="31.73" height="31.73"/><text class="cls-22" transform="translate(102.96 866.13)">S<tspan class="cls-23" x="13.44" y="0">e</tspan><tspan class="cls-24" x="25.96" y="0">t</tspan><tspan x="33.58" y="0">tings</tspan></text><rect class="cls-2" x="54.74" y="843.01" width="31.73" height="31.73"/><text class="cls-22" transform="translate(102.96 518.74)">Analytics</text><rect class="cls-2" x="54.74" y="495.61" width="31.73" height="31.73"/><text class="cls-22" transform="translate(102.96 460.54)">M<tspan class="cls-25" x="20.04" y="0">a</tspan><tspan class="cls-26" x="32.3" y="0">t</tspan><tspan x="39.59" y="0">ching</tspan></text><rect class="cls-2" x="54.74" y="437.4" width="31.73" height="31.73"/><text class="cls-22" transform="translate(102.96 402.34)">Jobs</text><rect class="cls-2" x="54.74" y="379.19" width="31.73" height="31.73"/><text class="cls-22" transform="translate(102.96 344.14)">Empl<tspan class="cls-27" x="53.1" y="0">o</tspan><tspan class="cls-28" x="66.24" y="0">y</tspan><tspan x="77.41" y="0">ers</tspan></text><rect class="cls-2" x="54.74" y="320.98" width="31.73" height="31.73"/><text class="cls-22" transform="translate(102.96 285.94)">Applicants</text><rect class="cls-2" x="54.74" y="262.77" width="31.73" height="31.73"/><circle class="cls-2" cx="75.35" cy="1006.52" r="33.32"/><text class="cls-22" transform="translate(124.82 1001.43)">Demo <tspan class="cls-29" x="69.44" y="0">A</tspan><tspan x="84.42" y="0">dmin</tspan></text><text class="cls-30" transform="translate(124.82 1028.04)">#0<tspan class="cls-31" x="22.15" y="0">1</tspan><tspan x="27.53" y="0">1</tspan><tspan class="cls-32" x="32.98" y="0">9</tspan><tspan x="42.78" y="0">20</tspan><tspan class="cls-33" x="63.09" y="0">2</tspan><tspan class="cls-34" x="72.16" y="0">5</tspan></text><rect class="cls-2" x="337.57" y="993.96" width="4.96" height="4.96" rx="1.41"/><rect class="cls-2" x="337.57" y="1004.04" width="4.96" height="4.96" rx="1.41"/><rect class="cls-2" x="337.57" y="1014.13" width="4.96" height="4.96" rx="1.41"/></svg>